<svg xmlns="http://www.w3.org/2000/svg" width="805" height="138" viewBox="-24 -110 805 138"><circle cx="45" cy="-41" r="41" fill="none" stroke="#E8001D" stroke-width="7" opacity="0.42"></circle><circle cx="45" cy="-41" r="19" fill="#E8001D"></circle><path d="M197-83Q203-83 208-80Q214-77 217-73Q220-68 220-62L220-62Q220-47 206-43L206-43L206-43Q222-39 222-22L222-22Q222-15 219-11Q215-6 210-3Q204 0 198 0L198 0L142 0L142-83L197-83ZM169-64L169-50L187-50Q189-50 191-52Q193-54 193-57L193-57L193-58Q193-61 191-63Q189-64 187-64L187-64L169-64ZM169-33L169-19L189-19Q191-19 193-21Q195-23 195-26L195-26L195-27Q195-30 193-32Q191-33 189-33L189-33L169-33ZM235 0L235-83L307-83L307-63L262-63L262-51L300-51L300-32L262-32L262-20L308-20L308 0L235 0ZM397-61L370-61L370 0L343 0L343-61L316-61L316-83L397-83L397-61Z" fill="#FFFFFF"></path><path d="M448-84Q466-84 477-75Q488-66 488-49L488-49L462-49Q462-56 459-60Q455-64 448-64L448-64Q440-64 436-59Q432-54 432-45L432-45L432-37Q432-29 436-23Q440-18 448-18L448-18Q455-18 459-22Q463-26 463-33L463-33L488-33Q488-17 477-8Q467 1 448 1L448 1Q427 1 416-9Q405-20 405-41L405-41Q405-62 416-73Q427-84 448-84L448-84ZM585 0L557 0L554-12L525-12L522 0L494 0L525-83L555-83L585 0ZM539-60L531-30L548-30L540-60L539-60ZM630-84Q646-84 656-78Q666-71 667-59L667-59L667-57L642-57L642-58Q642-61 639-64Q636-66 631-66L631-66Q626-66 623-64Q620-63 620-61L620-61Q620-57 624-56Q628-54 636-53L636-53Q646-51 653-48Q659-46 664-41Q669-36 669-27L669-27Q669-13 659-6Q649 1 633 1L633 1Q613 1 602-5Q592-12 592-28L592-28L617-28Q617-22 620-20Q623-18 630-18L630-18Q635-18 638-19Q642-20 642-23L642-23Q642-26 638-28Q634-29 626-31L626-31Q616-33 609-35Q603-38 598-43Q593-48 593-58L593-58Q593-71 604-78Q614-84 630-84L630-84ZM757-61L730-61L730 0L703 0L703-61L676-61L676-83L757-83L757-61Z" fill="#E8001D"></path></svg>